<svg xmlns="http://www.w3.org/2000/svg" viewBox="0 0 60 60"><title>social media assets</title><circle cx="30" cy="30" r="30" style="fill:#414042"/><path d="M26.2,25.73c0-1.47,0-2.76,0-4.06a5.27,5.27,0,0,1,5.4-5.33c1.67,0,3.34,0,5.12,0v5.14c-.87,0-1.77,0-2.66,0-1.34,0-1.76.45-1.8,1.8,0,.61,0,1.22,0,1.83,0,.14,0,.29.06.62,1.17,0,2.34,0,3.5,0,.76,0,1.06.23,1,1-.08.6-.12,1.21-.18,1.82-.22,2.34-.22,2.33-2.62,2.34-1.94,0-1.72-.19-1.73,1.7V45.51c-1.9,0-3.68,0-5.46,0-.21,0-.56-.71-.57-1.09,0-4,0-8.09,0-12.13V30.87c-.71,0-1.31,0-1.91,0-.76.06-1.13-.17-1.08-1,.05-1.07,0-2.14,0-3.2,0-.69.23-1,.93-.94S25.42,25.73,26.2,25.73Z" style="fill:#fff"/></svg>