<svg xmlns="http://www.w3.org/2000/svg" viewBox="0 0 60 60"><title>social media assets</title><circle cx="30.26" cy="30.26" r="30.26" style="fill:#414042"/><path d="M41.75,40.14H36.9c0-.35,0-.68,0-1,0-2.16,0-4.32,0-6.49,0-.44,0-.89,0-1.33-.17-1.64-1.11-2.53-2.57-2.46a2.68,2.68,0,0,0-2.57,2.68c0,2.51,0,5,0,7.53v1.06H26.77V25.34h4.87v2a5.33,5.33,0,0,1,5.8-2.25,5.26,5.26,0,0,1,4.27,5.26C41.87,33.56,41.75,36.8,41.75,40.14Z" style="fill:#fff"/><path d="M23.91,40.14h-4.8V25.34h4.8Z" style="fill:#fff"/><path d="M21.49,23.22a2.55,2.55,0,0,1-2.76-2.52,2.63,2.63,0,0,1,2.81-2.61,2.55,2.55,0,0,1,2.73,2.65A2.52,2.52,0,0,1,21.49,23.22Z" style="fill:#fff"/></svg>