<svg xmlns="http://www.w3.org/2000/svg" viewBox="0 0 54 32"><title>quotation marks</title><path d="M27.77,2.8a3.55,3.55,0,0,0-3.22-1.5c-.6,0-2.68,1.08-6.23,3.22S12.72,8.1,12.17,8.8A5,5,0,0,0,11.35,12l.15,3.45q0,3.3-5.33,7.87c-3.55,3.06-5.32,5-5.32,5.78Q.85,31,3.25,31,8.2,31,16.6,24.55A48.43,48.43,0,0,0,27.25,13.9a7.88,7.88,0,0,0,1.12-3.15,23.06,23.06,0,0,0,.38-4,7,7,0,0,0-1-3.9m24.9,0a3.55,3.55,0,0,0-3.22-1.5c-.6,0-2.65,1.08-6.15,3.22s-5.53,3.6-6.08,4.35a4.84,4.84,0,0,0-.82,2.93l.15,3.6q0,3.15-5.33,7.72c-3.55,3.06-5.32,5-5.32,5.93Q25.9,31,28.3,31q4.95,0,13.35-6.45A48.43,48.43,0,0,0,52.3,13.9a10.22,10.22,0,0,0,1-3.15,23.06,23.06,0,0,0,.38-4,7,7,0,0,0-1-3.9" style="fill:#6a99d0"/></svg>