<svg xmlns="http://www.w3.org/2000/svg" viewBox="0 0 54 32"><title>quotation marks</title><path d="M51,.61q-4.8,0-13.2,6.6-7.35,5.7-10.65,10.65A9.24,9.24,0,0,0,26,21a21.41,21.41,0,0,0-.37,4,6.91,6.91,0,0,0,1,4A3.77,3.77,0,0,0,30,30.46q1.35,0,8.25-4.5,3.3-2.1,3.75-2.85a4.84,4.84,0,0,0,1-3.3l-.15-3.45q0-2.7,3.45-6.15,7.2-7.2,7.2-7.65Q53.55.61,51,.61M26.1.61a8.52,8.52,0,0,0-2.85.83C22,2,21,2.41,20.4,2.71A51,51,0,0,0,10,9.16a36.86,36.86,0,0,0-7.73,8.7A7.73,7.73,0,0,0,1.13,21a21.39,21.39,0,0,0-.38,3.9,7.27,7.27,0,0,0,1,4.05,3.7,3.7,0,0,0,3.37,1.5c.5,0,2.52-1.07,6.08-3.22s5.57-3.6,6.07-4.35A5.2,5.2,0,0,0,18,20v-3.6q0-2.7,3.45-6.15Q28.5,3.16,28.5,2.56,28.5.61,26.1.61" style="fill:#6a99d0"/></svg>