<svg xmlns="http://www.w3.org/2000/svg" viewBox="0 0 60 60"><title>social media assets</title><circle cx="30" cy="30" r="30" style="fill:#414042"/><path d="M19.55,26.78l-1.14-1.46c1.73-1.45,3.42-2.89,5.15-4.28a4,4,0,0,1,1.46-.7,2.41,2.41,0,0,1,2.65,1,8.08,8.08,0,0,1,1,3.28c.34,1.91.69,3.81,1.1,5.7a8.19,8.19,0,0,0,.82,2,.62.62,0,0,0,1.12.16,10.61,10.61,0,0,0,3.16-5.56c.23-1.29-.47-2-1.78-1.85a13.26,13.26,0,0,0-1.37.27A6.34,6.34,0,0,1,38.31,20c2.16.18,3.18,1.39,3.27,3.8A9.62,9.62,0,0,1,40.13,29a34.32,34.32,0,0,1-7.4,9.29,7.1,7.1,0,0,1-3.09,1.63,2.53,2.53,0,0,1-2.53-.75,7.78,7.78,0,0,1-1.77-3.31c-.71-2.49-1.35-5-2.09-7.47a8.92,8.92,0,0,0-1-2.13c-.4-.65-.78-.67-1.42-.28Z" style="fill:#fff"/></svg>